<?xml version="1.0" standalone="no"?>
<!DOCTYPE svg PUBLIC "-//W3C//DTD SVG 20010904//EN"
 "http://www.w3.org/TR/2001/REC-SVG-20010904/DTD/svg10.dtd">
<svg version="1.0" xmlns="http://www.w3.org/2000/svg"
 width="1200.000000pt" height="600.000000pt" viewBox="0 0 1200.000000 600.000000"
 preserveAspectRatio="xMidYMid meet">
<metadata>
Created by potrace 1.16, written by Peter Selinger 2001-2019
</metadata>
<g transform="translate(0.000000,600.000000) scale(0.100000,-0.100000)"
fill="#000000" stroke="none">
<path d="M3032 3688 l-442 -301 0 -413 c0 -228 3 -414 8 -414 9 1 885 1420
880 1425 -2 3 -203 -131 -446 -297z"/>
<path d="M2745 3948 c-36 -13 -82 -53 -101 -90 -22 -43 -18 -129 9 -169 101
-150 327 -88 327 90 0 124 -119 210 -235 169z"/>
<path d="M11054 3706 c-30 -30 -34 -41 -34 -84 0 -61 25 -97 79 -113 80 -24
151 27 151 107 0 82 -41 124 -120 124 -34 0 -48 -6 -76 -34z"/>
<path d="M4136 3358 c-40 -64 -716 -1198 -716 -1203 0 -3 203 -5 450 -5 l450
0 0 135 0 135 -169 2 -169 3 167 297 c91 164 168 298 171 298 3 0 115 -196
249 -435 l243 -435 185 0 c149 0 184 3 180 13 -3 7 -158 283 -345 613 l-341
599 -170 3 c-168 2 -170 2 -185 -20z"/>
<path d="M5450 2765 l0 -615 185 0 185 0 0 615 0 615 -185 0 -185 0 0 -615z"/>
<path d="M6314 3370 c-69 -14 -113 -37 -134 -72 -20 -32 -20 -45 -18 -533 3
-482 4 -501 23 -535 12 -19 36 -43 55 -55 34 -19 50 -20 610 -20 l575 0 60 25
c41 17 66 36 82 59 22 33 23 42 23 232 l0 199 -155 0 -155 0 0 -125 0 -125
-410 0 -410 0 0 345 0 345 410 0 410 0 0 -110 0 -110 156 0 155 0 -3 189 c-3
173 -5 192 -24 217 -32 43 -65 63 -123 74 -64 12 -1066 12 -1127 0z"/>
<path d="M7890 2765 l0 -615 165 0 165 0 0 240 0 240 495 0 c433 0 500 2 535
16 68 27 70 36 70 346 0 249 -2 277 -20 316 -34 75 -4 72 -750 72 l-660 0 0
-615z m1114 329 c10 -25 7 -124 -4 -145 -10 -18 -25 -19 -395 -19 l-385 0 0
90 0 90 389 0 c345 0 390 -2 395 -16z"/>
<path d="M9580 2765 l0 -615 645 0 645 0 0 140 0 140 -485 0 -485 0 0 105 0
105 285 0 285 0 0 135 0 135 -285 0 -285 0 0 105 0 105 490 0 490 0 0 130 0
130 -650 0 -650 0 0 -615z"/>
<path d="M3483 1923 c-17 -43 -39 -95 -47 -115 l-16 -38 28 0 c21 0 32 7 40
25 9 20 19 25 47 25 28 0 38 -5 47 -25 8 -18 19 -25 40 -25 l28 0 -16 38 c-9
20 -30 72 -47 114 -43 106 -61 106 -104 1z"/>
<path d="M4090 1885 l0 -115 25 0 c23 0 24 3 27 68 l3 67 38 -67 c33 -60 41
-68 67 -68 l30 0 0 115 0 115 -25 0 c-23 0 -24 -3 -27 -72 l-3 -73 -40 72
c-35 63 -44 73 -67 73 l-28 0 0 -115z"/>
<path d="M4310 1886 l0 -116 60 0 c51 0 64 4 90 28 22 19 33 39 36 67 9 74
-36 121 -128 131 l-58 7 0 -117z"/>
<path d="M4671 1978 c-5 -13 -25 -61 -45 -108 -20 -46 -36 -88 -36 -92 0 -4
11 -8 25 -8 17 0 29 8 37 25 9 20 18 25 49 25 33 0 40 -4 45 -25 5 -19 13 -25
35 -25 16 0 29 2 29 5 0 3 -21 55 -47 115 -35 84 -50 110 -65 110 -10 0 -22
-10 -27 -22z"/>
<path d="M4953 1981 c-41 -26 -53 -49 -53 -103 0 -75 57 -125 133 -115 62 8
120 77 65 77 -13 0 -32 -7 -42 -15 -28 -22 -59 -18 -84 8 -28 30 -28 68 1 95
27 26 55 28 83 7 24 -18 64 -19 64 -2 0 26 -48 59 -92 64 -31 3 -52 -1 -75
-16z"/>
<path d="M5188 1984 c-77 -41 -75 -169 2 -209 84 -43 180 13 180 105 0 90
-102 148 -182 104z"/>
<path d="M5392 1899 c3 -92 5 -103 27 -120 32 -26 77 -24 106 6 23 22 25 32
25 120 0 95 0 95 -25 95 -25 0 -25 -1 -25 -84 0 -62 -4 -87 -15 -96 -12 -10
-18 -10 -30 0 -11 9 -15 34 -15 96 0 84 0 84 -26 84 l-26 0 4 -101z"/>
<path d="M5580 1885 l0 -115 25 0 c24 0 25 2 25 73 l0 72 42 -72 c36 -63 46
-73 70 -73 l28 0 0 115 0 115 -25 0 c-24 0 -25 -2 -25 -72 l-1 -73 -41 73
c-36 62 -46 72 -70 72 l-28 0 0 -115z"/>
<path d="M5832 1966 c-34 -31 -37 -39 -37 -86 0 -47 3 -55 37 -86 43 -38 88
-45 138 -19 26 13 50 42 50 59 0 12 -50 5 -78 -11 -25 -14 -34 -15 -56 -5 -33
15 -49 53 -36 87 5 14 21 31 36 37 22 10 31 9 56 -5 28 -16 78 -23 78 -11 0
17 -24 46 -50 59 -50 26 -95 19 -138 -19z"/>
<path d="M6330 1885 l0 -115 30 0 c29 0 30 2 30 45 0 43 1 45 30 45 25 0 30 4
30 25 0 21 -5 25 -30 25 -23 0 -30 4 -30 20 0 16 7 20 35 20 31 0 35 3 35 25
0 24 -2 25 -65 25 l-65 0 0 -115z"/>
<path d="M6523 1981 c-41 -26 -53 -49 -53 -103 0 -50 19 -82 60 -103 99 -51
209 46 167 147 -20 47 -50 70 -99 75 -31 3 -52 -1 -75 -16z"/>
<path d="M6730 1886 l0 -116 25 0 c22 0 25 5 25 33 l0 32 21 -32 c17 -27 27
-33 56 -33 l35 0 -27 36 -27 35 23 25 c28 30 29 78 2 105 -13 13 -39 22 -76
26 l-57 6 0 -117z"/>
<path d="M6990 1885 l0 -115 25 0 c23 0 25 4 25 40 0 37 2 40 28 40 49 0 82
57 61 103 -13 29 -54 47 -105 47 l-34 0 0 -115z"/>
<path d="M7150 1886 l0 -116 25 0 c21 0 25 5 25 32 l0 32 28 -33 c21 -25 33
-32 55 -29 l28 3 -25 34 -26 34 23 21 22 21 13 -36 c21 -60 55 -84 119 -84 49
0 58 3 84 33 23 26 29 41 29 80 0 55 -18 85 -62 108 -61 32 -135 4 -164 -61
l-13 -30 -1 26 c0 47 -28 68 -97 75 l-63 7 0 -117z"/>
<path d="M7580 1885 l0 -115 25 0 c23 0 25 4 25 45 0 45 0 45 36 45 31 0 35 3
32 23 -2 17 -11 23 -35 25 -25 2 -33 8 -33 23 0 15 7 19 35 19 31 0 35 3 35
25 0 24 -3 25 -60 25 l-60 0 0 -115z"/>
<path d="M7720 1885 l0 -115 65 0 c58 0 65 2 65 20 0 17 -7 20 -40 20 -36 0
-40 3 -40 25 0 22 4 25 35 25 31 0 35 3 35 25 0 22 -4 25 -35 25 -28 0 -35 4
-35 20 0 17 7 20 40 20 36 0 40 3 40 25 0 24 -2 25 -65 25 l-65 0 0 -115z"/>
<path d="M7892 1984 c-15 -10 -22 -25 -22 -49 0 -38 14 -56 59 -75 34 -14 41
-37 15 -47 -10 -4 -22 1 -29 10 -17 24 -55 22 -55 -3 0 -29 39 -60 76 -60 23
0 39 8 56 29 24 28 25 28 34 7 20 -46 100 -46 130 -1 20 31 9 82 -21 99 -62
33 -67 38 -56 49 8 8 14 8 23 -1 17 -17 58 -15 58 3 0 24 -38 55 -68 55 -33 0
-72 -36 -72 -66 0 -24 27 -64 43 -64 23 0 56 -30 51 -45 -8 -19 -33 -19 -40 0
-4 8 -18 15 -33 15 -18 0 -29 7 -36 23 -6 12 -27 30 -47 40 -38 19 -52 47 -23
47 8 0 15 -4 15 -10 0 -5 14 -10 30 -10 36 0 38 13 5 45 -28 29 -61 32 -93 9z"/>
<path d="M8313 1981 c-41 -26 -53 -49 -53 -103 0 -50 19 -82 60 -103 50 -26
96 -19 138 19 33 31 37 39 37 85 0 43 -4 55 -31 82 -41 41 -104 49 -151 20z"/>
<path d="M8520 1885 l0 -115 25 0 c23 0 24 3 27 66 l3 66 38 -66 c33 -58 41
-66 67 -66 l30 0 0 115 0 115 -25 0 c-23 0 -24 -3 -27 -72 l-3 -73 -40 72
c-35 63 -44 73 -67 73 l-28 0 0 -115z"/>
<path d="M8783 1923 c-17 -43 -39 -95 -47 -115 l-16 -38 30 0 c23 0 33 6 40
25 8 20 16 25 45 25 28 0 38 -5 47 -25 8 -18 19 -25 40 -25 l28 0 -16 38 c-8
20 -30 72 -47 115 -25 60 -36 77 -52 77 -16 0 -27 -17 -52 -77z"/>
<path d="M9180 1885 l0 -115 60 0 c53 0 60 2 60 20 0 16 -7 20 -35 20 -31 0
-35 3 -35 25 0 22 4 25 35 25 31 0 35 3 35 25 0 22 -4 25 -35 25 -28 0 -35 4
-35 20 0 16 7 20 35 20 31 0 35 3 35 25 0 24 -3 25 -60 25 l-60 0 0 -115z"/>
<path d="M9310 1994 c0 -4 16 -29 35 -55 19 -27 35 -54 35 -59 0 -5 -16 -32
-36 -60 l-36 -50 34 0 c27 0 37 6 52 32 l19 31 26 -32 c18 -21 35 -31 54 -31
15 0 27 2 27 5 0 3 -16 27 -36 54 l-35 50 35 53 c20 29 36 56 36 60 0 5 -13 8
-30 8 -16 0 -30 -3 -30 -7 0 -5 -11 -21 -23 -37 l-24 -29 -22 36 c-18 29 -29
37 -52 37 -16 0 -29 -3 -29 -6z"/>
<path d="M9562 1966 c-34 -31 -37 -39 -37 -86 0 -47 3 -55 37 -86 43 -38 88
-45 138 -19 26 13 50 42 50 59 0 13 -58 5 -70 -9 -25 -30 -84 -12 -100 31 -13
33 3 71 36 86 22 10 31 9 56 -5 28 -16 78 -23 78 -11 0 17 -24 46 -50 59 -50
26 -95 19 -138 -19z"/>
<path d="M9770 1885 l0 -115 65 0 c58 0 65 2 65 20 0 17 -7 20 -40 20 -36 0
-40 3 -40 25 0 22 4 25 35 25 31 0 35 3 35 25 0 22 -4 25 -35 25 -28 0 -35 4
-35 20 0 17 7 20 40 20 36 0 40 3 40 25 0 24 -2 25 -65 25 l-65 0 0 -115z"/>
<path d="M10180 1885 l0 -115 65 0 c58 0 65 2 65 20 0 16 -7 20 -35 20 -31 0
-35 3 -35 25 0 22 4 25 35 25 31 0 35 3 35 25 0 22 -4 25 -35 25 -28 0 -35 4
-35 20 0 16 7 20 35 20 31 0 35 3 35 25 0 24 -2 25 -65 25 l-65 0 0 -115z"/>
<path d="M10340 1885 l0 -115 25 0 c23 0 24 3 27 66 l3 66 38 -66 c34 -57 43
-66 68 -66 l29 0 0 115 0 115 -25 0 c-23 0 -24 -3 -27 -72 l-3 -73 -40 72
c-35 63 -44 73 -67 73 l-28 0 0 -115z"/>
<path d="M10608 1984 c-77 -41 -75 -169 2 -209 55 -28 120 -14 157 34 24 32
-20 43 -62 15 -32 -21 -64 -15 -88 18 -26 35 -15 75 26 98 25 14 30 13 58 -2
32 -19 79 -24 79 -10 0 14 -41 53 -67 63 -35 13 -74 11 -105 -7z"/>
<path d="M10790 1885 l0 -115 65 0 c58 0 65 2 65 20 0 17 -7 20 -40 20 -36 0
-40 3 -40 25 0 23 4 25 40 25 36 0 40 3 40 25 0 23 -4 25 -40 25 -33 0 -40 3
-40 20 0 17 7 20 40 20 36 0 40 3 40 25 0 24 -2 25 -65 25 l-65 0 0 -115z"/>
</g>
</svg>
